General
Complete name                    : New York I Love You .avi
Format                           : AVI
File size                        : 705 MiB
Duration                         : 1h 38mn
Overall bit rate                 : 997 Kbps

Video

Format                           : MPEG-4 Visual
Codec ID/Hint                    : XviD
Duration                         : 1h 38mn
Bit rate                         : 856 Kbps
Width                            : 716 pixels
Height                           : 554 pixels
Display aspect ratio             : 16:9
Stream size                      : 605 MiB (86%)
Writing library                  : XviD 1.1.2 (UTC 2006-11-01)

Audio

Format                           : MPEG Audio
Codec ID/Hint                    : MP3
Duration                         : 1h 38mn
Bit rate                         : 128 Kbps
Channel(s)                       : 2 channels
Sampling rate                    : 48.0 KHz
Stream size                      : 90.5 MiB (13%)


